<?xml version="1.0" ?><svg class="whatsapp-phone-ico" xmlns="http://www.w3.org/2000/svg" viewBox="0 0 43.7 44"><title>WhatsApp</title><path class="phone" fill="#72C165" d="M22.2,42.9c-3.8,0-7.3-1-10.4-2.7L0,44l3.9-11.5c-2-3.2-3.1-7-3.1-11.1C0.8,9.6,10.4,0,22.2,0 c11.8,0,21.4,9.6,21.4,21.4C43.7,33.3,34.1,42.9,22.2,42.9z M22.2,3.4c-9.9,0-18,8.1-18,18c0,3.9,1.3,7.6,3.4,10.6l-2.3,6.7l6.9-2.2 c2.8,1.9,6.3,3,9.9,3c9.9,0,18-8.1,18-18C40.3,11.5,32.2,3.4,22.2,3.4z M28.1,31.5c-6.3-0.1-16-8-16.4-14.8c-0.3-5,3.5-5,4.3-5 c1,0,1.2,1.6,2.8,4.8c0.6,1.2-2.1,3-1.5,3.8c0.4,0.5,1.4,2.2,2.9,3.6c2.5,2.4,4.6,2.7,5.2,2.6c1-0.1,1.4-2.3,2.7-2.5 c0.6-0.1,5,1.9,5,2.5C33.2,29.9,30.1,31.5,28.1,31.5z"/></svg>
